<?xml version="1.0" standalone="no"?>
<!DOCTYPE svg PUBLIC "-//W3C//DTD SVG 20010904//EN"
 "http://www.w3.org/TR/2001/REC-SVG-20010904/DTD/svg10.dtd">
<svg version="1.0" xmlns="http://www.w3.org/2000/svg"
 width="1510.000000pt" height="1510.000000pt" viewBox="0 0 1510.000000 1510.000000"
 preserveAspectRatio="xMidYMid meet">
<metadata>
Created by potrace 1.11, written by Peter Selinger 2001-2013
</metadata>
<g transform="translate(0.000000,1510.000000) scale(0.100000,-0.100000)"
fill="#000000" stroke="none">
<path d="M7228 15095 c-2 -1 -65 -6 -141 -10 -76 -3 -146 -8 -155 -10 -9 -1
-54 -6 -99 -9 -45 -4 -90 -9 -101 -11 -10 -2 -55 -6 -98 -10 -43 -4 -81 -9
-84 -10 -3 -2 -30 -6 -60 -10 -228 -27 -754 -136 -970 -201 -428 -128 -619
-196 -930 -326 -130 -55 -446 -205 -555 -265 -268 -146 -543 -310 -690 -411
-237 -164 -546 -398 -685 -519 -14 -12 -34 -30 -46 -40 -120 -103 -191 -169
-385 -363 -235 -235 -319 -325 -464 -500 -113 -136 -114 -137 -155 -190 -19
-25 -37 -47 -40 -50 -3 -3 -17 -21 -30 -40 -14 -19 -30 -42 -37 -50 -84 -103
-316 -448 -427 -635 -42 -71 -81 -137 -86 -145 -91 -146 -304 -578 -399 -810
-29 -69 -56 -134 -61 -145 -34 -76 -173 -475 -210 -605 -12 -41 -31 -106 -42
-145 -21 -73 -65 -245 -72 -280 -2 -11 -11 -47 -19 -80 -24 -93 -55 -255 -88
-455 -27 -168 -27 -169 -33 -220 -3 -25 -7 -61 -10 -80 -8 -49 -14 -113 -21
-205 -4 -44 -8 -91 -11 -104 -25 -166 -25 -1005 1 -1221 2 -19 6 -67 9 -107 3
-39 8 -86 10 -105 3 -18 8 -60 12 -93 15 -131 14 -128 45 -315 17 -111 65
-357 90 -465 5 -22 12 -51 15 -65 57 -261 247 -855 347 -1082 8 -18 31 -72 51
-120 70 -168 183 -403 287 -598 77 -145 71 -133 154 -272 39 -65 74 -127 80
-138 5 -11 13 -20 17 -20 5 0 8 -5 8 -10 0 -18 239 -368 366 -537 108 -143
227 -292 286 -358 10 -11 26 -29 35 -41 10 -12 50 -57 89 -100 40 -43 84 -92
99 -109 122 -136 362 -367 579 -560 6 -5 49 -42 96 -81 72 -59 120 -98 270
-217 204 -161 619 -434 885 -581 77 -43 156 -86 175 -97 210 -116 656 -314
925 -411 385 -138 873 -274 1165 -323 19 -3 71 -12 115 -20 44 -8 96 -17 115
-20 19 -3 46 -7 60 -10 14 -2 45 -7 70 -10 25 -3 56 -8 70 -10 14 -2 52 -7 85
-10 33 -4 74 -8 90 -10 17 -2 68 -7 115 -10 47 -4 90 -8 97 -10 81 -26 981
-26 1223 0 19 2 71 6 115 9 44 4 91 8 105 11 14 2 50 7 81 10 31 3 65 7 75 9
11 2 44 7 74 10 61 7 60 7 220 35 63 11 131 23 150 26 19 3 96 19 170 36 74
17 144 32 155 34 11 3 65 16 120 30 55 14 107 28 115 30 99 25 511 154 555
174 11 5 43 17 70 26 28 10 64 23 80 30 17 7 46 18 65 25 19 7 53 21 75 30 22
10 78 34 125 53 486 201 1067 533 1520 870 156 116 378 291 400 316 8 9 28 26
43 38 27 21 135 117 216 192 186 173 443 440 591 616 23 28 52 61 64 75 207
233 530 694 746 1065 114 196 285 532 359 705 18 41 39 89 46 105 35 78 156
386 161 410 1 6 15 44 29 85 61 168 186 596 209 713 2 12 13 60 24 107 20 84
57 265 67 328 10 60 16 97 25 152 5 30 12 75 15 100 3 25 8 56 10 70 2 14 7
57 11 95 3 39 8 79 10 90 2 11 6 47 9 80 3 33 7 83 10 110 26 296 27 1094 0
1233 -1 9 -6 61 -10 116 -4 54 -8 108 -10 120 -2 11 -6 44 -10 71 -20 156 -24
189 -29 210 -2 11 -6 41 -10 66 -21 144 -74 415 -107 544 -5 22 -12 49 -14 60
-5 23 -35 137 -64 247 -60 221 -186 585 -285 827 -46 109 -65 153 -144 326
-54 118 -193 389 -246 479 -25 42 -46 80 -46 82 0 6 -102 177 -109 184 -4 3
-15 21 -25 40 -33 60 -235 360 -324 480 -74 100 -257 336 -272 350 -3 3 -30
34 -60 70 -128 152 -192 222 -476 514 -6 6 -62 58 -124 116 -63 58 -121 112
-130 120 -8 8 -45 40 -80 70 -36 30 -67 57 -70 60 -17 19 -237 194 -350 279
-74 55 -140 105 -146 110 -65 54 -475 314 -654 416 -184 104 -499 264 -660
335 -127 56 -460 190 -472 190 -6 0 -24 7 -41 14 -105 48 -621 202 -845 251
-203 45 -524 105 -632 119 -19 2 -75 9 -125 15 -49 7 -106 13 -125 16 -39 5
-106 11 -220 20 -41 4 -97 9 -125 11 -56 6 -801 14 -807 9z"/>
</g>
</svg>
